<svg xmlns="http://www.w3.org/2000/svg" fill="none" viewBox="0 0 52 52"><g clip-path="url(#world_svg__a)"><rect width="52" height="52" fill="#fff" rx="26"/><g filter="url(#world_svg__b)"><rect width="52" height="52" fill="#040406" rx="26"/><rect width="52" height="52" fill="url(#world_svg__c)" rx="26"/><rect width="51" height="51" x=".5" y=".5" stroke="url(#world_svg__d)" rx="25.5"/></g><mask id="world_svg__g" width="52" height="52" x="0" y="0" maskUnits="userSpaceOnUse" style="mask-type:alpha"><rect width="51" height="51" x=".5" y=".5" fill="#040406" rx="25.5"/><rect width="51" height="51" x=".5" y=".5" fill="url(#world_svg__e)" rx="25.5"/><rect width="51" height="51" x=".5" y=".5" stroke="url(#world_svg__f)" rx="25.5"/></mask><g mask="url(#world_svg__g)"><g filter="url(#world_svg__h)" opacity=".4"><ellipse cx="24" cy="52.097" fill="#C98D55" rx="39" ry="15.097"/></g><g filter="url(#world_svg__i)" opacity=".5"><path fill="url(#world_svg__j)" fill-rule="evenodd" d="M19.333 16.022A12 12 0 0 1 26 14a12.013 12.013 0 0 1 12 12 12 12 0 1 1-18.667-9.978m2.798 19.199c1.225.515 2.54.78 3.869.779a9.98 9.98 0 0 0 8.054-15.902l-.718.408a1 1 0 0 1-.375.123l-3 .356a1 1 0 0 1-.745-.214l-2.284-1.837a1 1 0 0 1-.319-.455l-.586-1.713-.448-.745a9.93 9.93 0 0 0-5.54 1.969l.318.261a1 1 0 0 1 .094.089L22.1 20.1a1 1 0 0 1 .252.826l-.4 2.74a1 1 0 0 1-.538.746l-2.487 1.258-.64.547.187.319 1.236 1.321c.108.116.187.256.231.409l.7 2.472a1 1 0 0 1-.318 1.04L18.868 33a10 10 0 0 0 3.263 2.22m10.628-10.958 1.135 2.178a1 1 0 0 1 .027.869l-1.882 4.25a1 1 0 0 1-.233.325l-1.762 1.64a1 1 0 0 1-.618.268l-2.34.15h-.063a1 1 0 0 1-.772-.364l-.657-1.735a.99.99 0 0 1-.188-.844l.5-1.72-.812-2.061a1.25 1.25 0 0 1 .073-.927l1.338-1.973a1 1 0 0 1 .45-.32l2.228-.781a1 1 0 0 1 .564-.03l2.357.564a1 1 0 0 1 .655.51" clip-rule="evenodd"/></g><path fill="url(#world_svg__k)" fill-rule="evenodd" d="M19.333 16.022A12 12 0 0 1 26 14a12.013 12.013 0 0 1 12 12 12 12 0 1 1-18.667-9.978m2.798 19.199c1.225.515 2.54.78 3.869.779a9.98 9.98 0 0 0 8.054-15.902l-.718.408a1 1 0 0 1-.375.123l-3 .356a1 1 0 0 1-.745-.214l-2.284-1.837a1 1 0 0 1-.319-.455l-.586-1.713-.448-.745a9.93 9.93 0 0 0-5.54 1.969l.318.261a1 1 0 0 1 .094.089L22.1 20.1a1 1 0 0 1 .252.826l-.4 2.74a1 1 0 0 1-.538.746l-2.487 1.258-.64.547.187.319 1.236 1.321c.108.116.187.256.231.409l.7 2.472a1 1 0 0 1-.318 1.04L18.868 33a10 10 0 0 0 3.263 2.22m10.628-10.958 1.135 2.178a1 1 0 0 1 .027.869l-1.882 4.25a1 1 0 0 1-.233.325l-1.762 1.64a1 1 0 0 1-.618.268l-2.34.15h-.063a1 1 0 0 1-.772-.364l-.657-1.735a.99.99 0 0 1-.188-.844l.5-1.72-.812-2.061a1.25 1.25 0 0 1 .073-.927l1.338-1.973a1 1 0 0 1 .45-.32l2.228-.781a1 1 0 0 1 .564-.03l2.357.564a1 1 0 0 1 .655.51" clip-rule="evenodd"/></g></g><defs><linearGradient id="world_svg__c" x1="26" x2="26" y1="0" y2="52" gradientUnits="userSpaceOnUse"><stop stop-color="#3B3B47"/><stop offset="1" stop-color="#040406"/></linearGradient><linearGradient id="world_svg__d" x1="26" x2="26" y1="0" y2="52" gradientUnits="userSpaceOnUse"><stop stop-color="#515161"/><stop offset="1" stop-color="#213131" stop-opacity="0"/></linearGradient><linearGradient id="world_svg__e" x1="26" x2="26" y1="0" y2="52" gradientUnits="userSpaceOnUse"><stop stop-color="#3B3B47"/><stop offset="1" stop-color="#040406"/></linearGradient><linearGradient id="world_svg__f" x1="26" x2="26" y1="0" y2="52" gradientUnits="userSpaceOnUse"><stop stop-color="#515161"/><stop offset="1" stop-color="#213131" stop-opacity="0"/></linearGradient><linearGradient id="world_svg__j" x1="26" x2="26" y1="14" y2="38" gradientUnits="userSpaceOnUse"><stop stop-color="#FFB359"/><stop offset="1" stop-color="#CA6545"/></linearGradient><linearGradient id="world_svg__k" x1="26" x2="26" y1="14" y2="38" gradientUnits="userSpaceOnUse"><stop stop-color="#FFB359"/><stop offset="1" stop-color="#CA6545"/></linearGradient><filter id="world_svg__b" width="65" height="65" x="-6.5" y="-3.5" color-interpolation-filters="sRGB" filterUnits="userSpaceOnUse"><feFlood flood-opacity="0" result="BackgroundImageFix"/><feColorMatrix in="SourceAlpha" result="hardAlpha" values="0 0 0 0 0 0 0 0 0 0 0 0 0 0 0 0 0 0 127 0"/><feOffset dy="3"/><feGaussianBlur stdDeviation="3.25"/><feComposite in2="hardAlpha" operator="out"/><feColorMatrix values="0 0 0 0 0.284554 0 0 0 0 0.224965 0 0 0 0 0.169959 0 0 0 0.6 0"/><feBlend in2="BackgroundImageFix" result="effect1_dropShadow_8702_103150"/><feBlend in="SourceGraphic" in2="effect1_dropShadow_8702_103150" result="shape"/></filter><filter id="world_svg__h" width="106" height="58.194" x="-29" y="23" color-interpolation-filters="sRGB" filterUnits="userSpaceOnUse"><feFlood flood-opacity="0" result="BackgroundImageFix"/><feBlend in="SourceGraphic" in2="BackgroundImageFix" result="shape"/><feGaussianBlur result="effect1_foregroundBlur_8702_103150" stdDeviation="7"/></filter><filter id="world_svg__i" width="32" height="32" x="10" y="10" color-interpolation-filters="sRGB" filterUnits="userSpaceOnUse"><feFlood flood-opacity="0" result="BackgroundImageFix"/><feBlend in="SourceGraphic" in2="BackgroundImageFix" result="shape"/><feGaussianBlur result="effect1_foregroundBlur_8702_103150" stdDeviation="2"/></filter><clipPath id="world_svg__a"><rect width="52" height="52" fill="#fff" rx="26"/></clipPath></defs></svg>