<svg xmlns="http://www.w3.org/2000/svg" fill="none" viewBox="0 0 52 52"><rect width="51" height="51" x=".5" y=".5" fill="#040406" rx="25.5"/><rect width="51" height="51" x=".5" y=".5" fill="url(#code_svg__a)" rx="25.5"/><rect width="51" height="51" x=".5" y=".5" stroke="url(#code_svg__b)" rx="25.5"/><mask id="code_svg__e" width="52" height="52" x="0" y="0" maskUnits="userSpaceOnUse" style="mask-type:alpha"><rect width="51" height="51" x=".5" y=".5" fill="#040406" rx="25.5"/><rect width="51" height="51" x=".5" y=".5" fill="url(#code_svg__c)" rx="25.5"/><rect width="51" height="51" x=".5" y=".5" stroke="url(#code_svg__d)" rx="25.5"/></mask><g mask="url(#code_svg__e)"><g filter="url(#code_svg__f)" opacity=".4"><ellipse cx="24" cy="52.097" fill="#C98D55" rx="39" ry="15.097"/></g><g stroke-linecap="round" stroke-miterlimit="10" stroke-width="2" filter="url(#code_svg__g)" opacity=".5"><path stroke="url(#code_svg__h)" d="m22 20-5.293 5.293a1 1 0 0 0 0 1.414L22 32"/><path stroke="url(#code_svg__i)" d="m30 20 5.293 5.293a1 1 0 0 1 0 1.414L30 32"/></g><path stroke="url(#code_svg__j)" stroke-linecap="round" stroke-miterlimit="10" stroke-width="2" d="m22 20-5.293 5.293a1 1 0 0 0 0 1.414L22 32"/><path stroke="url(#code_svg__k)" stroke-linecap="round" stroke-miterlimit="10" stroke-width="2" d="m30 20 5.293 5.293a1 1 0 0 1 0 1.414L30 32"/></g><defs><linearGradient id="code_svg__a" x1="26" x2="26" y1="0" y2="52" gradientUnits="userSpaceOnUse"><stop stop-color="#3B3B47"/><stop offset="1" stop-color="#040406"/></linearGradient><linearGradient id="code_svg__b" x1="26" x2="26" y1="0" y2="52" gradientUnits="userSpaceOnUse"><stop stop-color="#515161"/><stop offset="1" stop-color="#213131" stop-opacity="0"/></linearGradient><linearGradient id="code_svg__c" x1="26" x2="26" y1="0" y2="52" gradientUnits="userSpaceOnUse"><stop stop-color="#3B3B47"/><stop offset="1" stop-color="#040406"/></linearGradient><linearGradient id="code_svg__d" x1="26" x2="26" y1="0" y2="52" gradientUnits="userSpaceOnUse"><stop stop-color="#515161"/><stop offset="1" stop-color="#213131" stop-opacity="0"/></linearGradient><linearGradient id="code_svg__h" x1="19" x2="19" y1="20" y2="32" gradientUnits="userSpaceOnUse"><stop stop-color="#FFB359"/><stop offset="1" stop-color="#CA6545"/></linearGradient><linearGradient id="code_svg__i" x1="33" x2="33" y1="20" y2="32" gradientUnits="userSpaceOnUse"><stop stop-color="#FFB359"/><stop offset="1" stop-color="#CA6545"/></linearGradient><linearGradient id="code_svg__j" x1="19" x2="19" y1="20" y2="32" gradientUnits="userSpaceOnUse"><stop stop-color="#FFB359"/><stop offset="1" stop-color="#CA6545"/></linearGradient><linearGradient id="code_svg__k" x1="33" x2="33" y1="20" y2="32" gradientUnits="userSpaceOnUse"><stop stop-color="#FFB359"/><stop offset="1" stop-color="#CA6545"/></linearGradient><filter id="code_svg__f" width="106" height="58.194" x="-29" y="23" color-interpolation-filters="sRGB" filterUnits="userSpaceOnUse"><feFlood flood-opacity="0" result="BackgroundImageFix"/><feBlend in="SourceGraphic" in2="BackgroundImageFix" result="shape"/><feGaussianBlur result="effect1_foregroundBlur_5064_98575" stdDeviation="7"/></filter><filter id="code_svg__g" width="29.172" height="22" x="11.414" y="15" color-interpolation-filters="sRGB" filterUnits="userSpaceOnUse"><feFlood flood-opacity="0" result="BackgroundImageFix"/><feBlend in="SourceGraphic" in2="BackgroundImageFix" result="shape"/><feGaussianBlur result="effect1_foregroundBlur_5064_98575" stdDeviation="2"/></filter></defs></svg>