<svg xmlns="http://www.w3.org/2000/svg" fill="none" viewBox="0 0 52 52"><rect width="51" height="51" x=".5" y=".5" fill="#040406" rx="25.5"/><rect width="51" height="51" x=".5" y=".5" fill="url(#globe_svg__a)" rx="25.5"/><rect width="51" height="51" x=".5" y=".5" stroke="url(#globe_svg__b)" rx="25.5"/><mask id="globe_svg__e" width="52" height="52" x="0" y="0" maskUnits="userSpaceOnUse" style="mask-type:alpha"><rect width="51" height="51" x=".5" y=".5" fill="#040406" rx="25.5"/><rect width="51" height="51" x=".5" y=".5" fill="url(#globe_svg__c)" rx="25.5"/><rect width="51" height="51" x=".5" y=".5" stroke="url(#globe_svg__d)" rx="25.5"/></mask><g mask="url(#globe_svg__e)"><g filter="url(#globe_svg__f)" opacity=".4"><ellipse cx="26.5" cy="52" fill="#7F8AAD" rx="39.5" ry="15"/></g><g filter="url(#globe_svg__g)" opacity=".4"><path fill="#EEEFF1" d="M37.818 25H14.182v2h23.636zM26.69 38.542c7.166-6.825 7.166-18.259 0-25.084l-1.38 1.448c6.34 6.038 6.34 16.15 0 22.188zm0-1.448c-6.34-6.038-6.34-16.15 0-22.188l-1.38-1.448c-7.167 6.825-7.167 18.259 0 25.084zM26 38.818c7.08 0 12.818-5.739 12.818-12.818h-2c0 5.975-4.843 10.818-10.818 10.818zM38.818 26c0-7.08-5.739-12.818-12.818-12.818v2c5.974 0 10.818 4.843 10.818 10.818zM26 13.182c-7.08 0-12.818 5.739-12.818 12.818h2c0-5.975 4.843-10.818 10.818-10.818zM13.182 26c0 7.08 5.739 12.818 12.818 12.818v-2c-5.975 0-10.818-4.843-10.818-10.818z"/><path fill="url(#globe_svg__h)" d="M37.818 25H14.182v2h23.636zM26.69 38.542c7.166-6.825 7.166-18.259 0-25.084l-1.38 1.448c6.34 6.038 6.34 16.15 0 22.188zm0-1.448c-6.34-6.038-6.34-16.15 0-22.188l-1.38-1.448c-7.167 6.825-7.167 18.259 0 25.084zM26 38.818c7.08 0 12.818-5.739 12.818-12.818h-2c0 5.975-4.843 10.818-10.818 10.818zM38.818 26c0-7.08-5.739-12.818-12.818-12.818v2c5.974 0 10.818 4.843 10.818 10.818zM26 13.182c-7.08 0-12.818 5.739-12.818 12.818h2c0-5.975 4.843-10.818 10.818-10.818zM13.182 26c0 7.08 5.739 12.818 12.818 12.818v-2c-5.975 0-10.818-4.843-10.818-10.818z"/></g><path fill="#EEEFF1" d="M37.818 25H14.182v2h23.636zM26.69 38.542c7.166-6.825 7.166-18.259 0-25.084l-1.38 1.448c6.34 6.038 6.34 16.15 0 22.188zm0-1.448c-6.34-6.038-6.34-16.15 0-22.188l-1.38-1.448c-7.167 6.825-7.167 18.259 0 25.084zM26 38.818c7.08 0 12.818-5.739 12.818-12.818h-2c0 5.975-4.843 10.818-10.818 10.818zM38.818 26c0-7.08-5.739-12.818-12.818-12.818v2c5.974 0 10.818 4.843 10.818 10.818zM26 13.182c-7.08 0-12.818 5.739-12.818 12.818h2c0-5.975 4.843-10.818 10.818-10.818zM13.182 26c0 7.08 5.739 12.818 12.818 12.818v-2c-5.975 0-10.818-4.843-10.818-10.818z"/><path fill="url(#globe_svg__i)" d="M37.818 25H14.182v2h23.636zM26.69 38.542c7.166-6.825 7.166-18.259 0-25.084l-1.38 1.448c6.34 6.038 6.34 16.15 0 22.188zm0-1.448c-6.34-6.038-6.34-16.15 0-22.188l-1.38-1.448c-7.167 6.825-7.167 18.259 0 25.084zM26 38.818c7.08 0 12.818-5.739 12.818-12.818h-2c0 5.975-4.843 10.818-10.818 10.818zM38.818 26c0-7.08-5.739-12.818-12.818-12.818v2c5.974 0 10.818 4.843 10.818 10.818zM26 13.182c-7.08 0-12.818 5.739-12.818 12.818h2c0-5.975 4.843-10.818 10.818-10.818zM13.182 26c0 7.08 5.739 12.818 12.818 12.818v-2c-5.975 0-10.818-4.843-10.818-10.818z"/></g><defs><linearGradient id="globe_svg__a" x1="26" x2="26" y1="0" y2="52" gradientUnits="userSpaceOnUse"><stop stop-color="#3B3B47"/><stop offset="1" stop-color="#040406"/></linearGradient><linearGradient id="globe_svg__b" x1="26" x2="26" y1="0" y2="52" gradientUnits="userSpaceOnUse"><stop stop-color="#515161"/><stop offset="1" stop-color="#213131" stop-opacity="0"/></linearGradient><linearGradient id="globe_svg__c" x1="26" x2="26" y1="0" y2="52" gradientUnits="userSpaceOnUse"><stop stop-color="#3B3B47"/><stop offset="1" stop-color="#040406"/></linearGradient><linearGradient id="globe_svg__d" x1="26" x2="26" y1="0" y2="52" gradientUnits="userSpaceOnUse"><stop stop-color="#515161"/><stop offset="1" stop-color="#213131" stop-opacity="0"/></linearGradient><linearGradient id="globe_svg__h" x1="26" x2="26.524" y1="14.182" y2="44.695" gradientUnits="userSpaceOnUse"><stop stop-color="#CAD5F9"/><stop offset="1" stop-color="#59668F"/></linearGradient><linearGradient id="globe_svg__i" x1="26" x2="26.524" y1="14.182" y2="44.695" gradientUnits="userSpaceOnUse"><stop stop-color="#CAD5F9"/><stop offset="1" stop-color="#59668F"/></linearGradient><filter id="globe_svg__f" width="107" height="58" x="-27" y="23" color-interpolation-filters="sRGB" filterUnits="userSpaceOnUse"><feFlood flood-opacity="0" result="BackgroundImageFix"/><feBlend in="SourceGraphic" in2="BackgroundImageFix" result="shape"/><feGaussianBlur result="effect1_foregroundBlur_5044_192268" stdDeviation="7"/></filter><filter id="globe_svg__g" width="34.357" height="34.356" x="8.822" y="8.822" color-interpolation-filters="sRGB" filterUnits="userSpaceOnUse"><feFlood flood-opacity="0" result="BackgroundImageFix"/><feBlend in="SourceGraphic" in2="BackgroundImageFix" result="shape"/><feGaussianBlur result="effect1_foregroundBlur_5044_192268" stdDeviation="2.18"/></filter></defs></svg>