<svg xmlns="http://www.w3.org/2000/svg" fill="none" viewBox="0 0 52 52"><g clip-path="url(#chart_svg__a)"><rect width="52" height="52" fill="#fff" rx="26"/><g filter="url(#chart_svg__b)"><rect width="52" height="52" fill="#040406" rx="26"/><rect width="52" height="52" fill="url(#chart_svg__c)" rx="26"/><rect width="51" height="51" x=".5" y=".5" stroke="url(#chart_svg__d)" rx="25.5"/></g><mask id="chart_svg__g" width="52" height="52" x="0" y="0" maskUnits="userSpaceOnUse" style="mask-type:alpha"><rect width="51" height="51" x=".5" y=".5" fill="#040406" rx="25.5"/><rect width="51" height="51" x=".5" y=".5" fill="url(#chart_svg__e)" rx="25.5"/><rect width="51" height="51" x=".5" y=".5" stroke="url(#chart_svg__f)" rx="25.5"/></mask><g mask="url(#chart_svg__g)"><g filter="url(#chart_svg__h)" opacity=".4"><ellipse cx="24" cy="52.097" fill="#7F8AAD" rx="39" ry="15.097"/></g><g filter="url(#chart_svg__i)" opacity=".5"><path fill="url(#chart_svg__j)" d="M24 25.449c0-.248.201-.45.45-.45h3.101c.248 0 .45.202.45.45V35.55a.45.45 0 0 1-.45.449H24.45a.45.45 0 0 1-.449-.45z"/><path fill="url(#chart_svg__k)" d="M32 21.449c0-.248.201-.45.45-.45h3.101c.248 0 .45.202.45.45V35.55a.45.45 0 0 1-.45.449H32.45a.45.45 0 0 1-.449-.45z"/><path fill="url(#chart_svg__l)" d="M16 29.449c0-.248.201-.45.45-.45h3.101c.248 0 .45.202.45.45v6.102a.45.45 0 0 1-.45.449H16.45a.45.45 0 0 1-.449-.45z"/><path fill="url(#chart_svg__m)" fill-rule="evenodd" d="M30.097 15.682a.45.45 0 0 1 0 .635l-5.78 5.78a.45.45 0 0 1-.634 0l-3.365-3.365a.45.45 0 0 0-.635 0l-3.365 3.365a.45.45 0 0 1-.635 0l-.78-.78a.45.45 0 0 1 0-.635l4.78-4.779a.45.45 0 0 1 .635 0l3.365 3.365c.175.176.46.176.635 0l4.365-4.365a.45.45 0 0 1 .635 0z" clip-rule="evenodd"/></g><path fill="url(#chart_svg__n)" d="M24 25.449c0-.248.201-.45.45-.45h3.101c.248 0 .45.202.45.45V35.55a.45.45 0 0 1-.45.449H24.45a.45.45 0 0 1-.449-.45z"/><path fill="url(#chart_svg__o)" d="M32 21.449c0-.248.201-.45.45-.45h3.101c.248 0 .45.202.45.45V35.55a.45.45 0 0 1-.45.449H32.45a.45.45 0 0 1-.449-.45z"/><path fill="url(#chart_svg__p)" d="M16 29.449c0-.248.201-.45.45-.45h3.101c.248 0 .45.202.45.45v6.102a.45.45 0 0 1-.45.449H16.45a.45.45 0 0 1-.449-.45z"/><path fill="url(#chart_svg__q)" fill-rule="evenodd" d="M30.097 15.682a.45.45 0 0 1 0 .635l-5.78 5.78a.45.45 0 0 1-.634 0l-3.365-3.365a.45.45 0 0 0-.635 0l-3.365 3.365a.45.45 0 0 1-.635 0l-.78-.78a.45.45 0 0 1 0-.635l4.78-4.779a.45.45 0 0 1 .635 0l3.365 3.365c.175.176.46.176.635 0l4.365-4.365a.45.45 0 0 1 .635 0z" clip-rule="evenodd"/></g></g><defs><linearGradient id="chart_svg__c" x1="26" x2="26" y1="0" y2="52" gradientUnits="userSpaceOnUse"><stop stop-color="#3B3B47"/><stop offset="1" stop-color="#040406"/></linearGradient><linearGradient id="chart_svg__d" x1="26" x2="26" y1="0" y2="52" gradientUnits="userSpaceOnUse"><stop stop-color="#515161"/><stop offset="1" stop-color="#213131" stop-opacity="0"/></linearGradient><linearGradient id="chart_svg__e" x1="26" x2="26" y1="0" y2="52" gradientUnits="userSpaceOnUse"><stop stop-color="#3B3B47"/><stop offset="1" stop-color="#040406"/></linearGradient><linearGradient id="chart_svg__f" x1="26" x2="26" y1="0" y2="52" gradientUnits="userSpaceOnUse"><stop stop-color="#515161"/><stop offset="1" stop-color="#213131" stop-opacity="0"/></linearGradient><linearGradient id="chart_svg__j" x1="25.293" x2="25.768" y1="14.586" y2="42.23" gradientUnits="userSpaceOnUse"><stop stop-color="#CAD5F9"/><stop offset="1" stop-color="#59668F"/></linearGradient><linearGradient id="chart_svg__k" x1="25.293" x2="25.768" y1="14.586" y2="42.23" gradientUnits="userSpaceOnUse"><stop stop-color="#CAD5F9"/><stop offset="1" stop-color="#59668F"/></linearGradient><linearGradient id="chart_svg__l" x1="25.293" x2="25.768" y1="14.586" y2="42.23" gradientUnits="userSpaceOnUse"><stop stop-color="#CAD5F9"/><stop offset="1" stop-color="#59668F"/></linearGradient><linearGradient id="chart_svg__m" x1="25.293" x2="25.768" y1="14.586" y2="42.23" gradientUnits="userSpaceOnUse"><stop stop-color="#CAD5F9"/><stop offset="1" stop-color="#59668F"/></linearGradient><linearGradient id="chart_svg__n" x1="25.293" x2="25.768" y1="14.586" y2="42.23" gradientUnits="userSpaceOnUse"><stop stop-color="#CAD5F9"/><stop offset="1" stop-color="#59668F"/></linearGradient><linearGradient id="chart_svg__o" x1="25.293" x2="25.768" y1="14.586" y2="42.23" gradientUnits="userSpaceOnUse"><stop stop-color="#CAD5F9"/><stop offset="1" stop-color="#59668F"/></linearGradient><linearGradient id="chart_svg__p" x1="25.293" x2="25.768" y1="14.586" y2="42.23" gradientUnits="userSpaceOnUse"><stop stop-color="#CAD5F9"/><stop offset="1" stop-color="#59668F"/></linearGradient><linearGradient id="chart_svg__q" x1="25.293" x2="25.768" y1="14.586" y2="42.23" gradientUnits="userSpaceOnUse"><stop stop-color="#CAD5F9"/><stop offset="1" stop-color="#59668F"/></linearGradient><filter id="chart_svg__b" width="65" height="65" x="-6.5" y="-3.5" color-interpolation-filters="sRGB" filterUnits="userSpaceOnUse"><feFlood flood-opacity="0" result="BackgroundImageFix"/><feColorMatrix in="SourceAlpha" result="hardAlpha" values="0 0 0 0 0 0 0 0 0 0 0 0 0 0 0 0 0 0 127 0"/><feOffset dy="3"/><feGaussianBlur stdDeviation="3.25"/><feComposite in2="hardAlpha" operator="out"/><feColorMatrix values="0 0 0 0 0.169959 0 0 0 0 0.236424 0 0 0 0 0.284554 0 0 0 0.6 0"/><feBlend in2="BackgroundImageFix" result="effect1_dropShadow_8702_103148"/><feBlend in="SourceGraphic" in2="effect1_dropShadow_8702_103148" result="shape"/></filter><filter id="chart_svg__h" width="106" height="58.194" x="-29" y="23" color-interpolation-filters="sRGB" filterUnits="userSpaceOnUse"><feFlood flood-opacity="0" result="BackgroundImageFix"/><feBlend in="SourceGraphic" in2="BackgroundImageFix" result="shape"/><feGaussianBlur result="effect1_foregroundBlur_8702_103148" stdDeviation="7"/></filter><filter id="chart_svg__i" width="28.413" height="28.412" x="11.18" y="11.18" color-interpolation-filters="sRGB" filterUnits="userSpaceOnUse"><feFlood flood-opacity="0" result="BackgroundImageFix"/><feBlend in="SourceGraphic" in2="BackgroundImageFix" result="shape"/><feGaussianBlur result="effect1_foregroundBlur_8702_103148" stdDeviation="1.796"/></filter><clipPath id="chart_svg__a"><rect width="52" height="52" fill="#fff" rx="26"/></clipPath></defs></svg>