<svg xmlns="http://www.w3.org/2000/svg" fill="none" viewBox="0 0 52 52"><g clip-path="url(#code-lines_svg__a)"><rect width="52" height="52" fill="#fff" rx="26"/><g filter="url(#code-lines_svg__b)"><rect width="52" height="52" fill="#040406" rx="26"/><rect width="52" height="52" fill="url(#code-lines_svg__c)" rx="26"/><rect width="51" height="51" x=".5" y=".5" stroke="url(#code-lines_svg__d)" rx="25.5"/></g><mask id="code-lines_svg__g" width="52" height="52" x="0" y="0" maskUnits="userSpaceOnUse" style="mask-type:alpha"><rect width="51" height="51" x=".5" y=".5" fill="#040406" rx="25.5"/><rect width="51" height="51" x=".5" y=".5" fill="url(#code-lines_svg__e)" rx="25.5"/><rect width="51" height="51" x=".5" y=".5" stroke="url(#code-lines_svg__f)" rx="25.5"/></mask><g mask="url(#code-lines_svg__g)"><g filter="url(#code-lines_svg__h)" opacity=".7"><ellipse cx="24" cy="52.097" fill="#7B7B9C" rx="39" ry="15.097"/></g><g filter="url(#code-lines_svg__i)" opacity=".5"><path stroke="url(#code-lines_svg__j)" stroke-linecap="square" stroke-linejoin="round" stroke-miterlimit="10" stroke-width="2" d="m21 22.5 3.5 3.5-3.5 3.5m8-3.5h2m-5-4h5m-5 8h5m4-13H17v18h18z"/></g><path stroke="#212121" stroke-linecap="round" stroke-linejoin="round" stroke-miterlimit="10" stroke-width="2" d="m21 22.5 3.5 3.5-3.5 3.5m8-3.5h2m-5-4h5m-5 8h5m4-13H17v18h18z"/><path stroke="url(#code-lines_svg__k)" stroke-linecap="round" stroke-linejoin="round" stroke-miterlimit="10" stroke-width="2" d="m21 22.5 3.5 3.5-3.5 3.5m8-3.5h2m-5-4h5m-5 8h5m4-13H17v18h18z"/></g></g><defs><linearGradient id="code-lines_svg__c" x1="26" x2="26" y1="0" y2="52" gradientUnits="userSpaceOnUse"><stop stop-color="#3B3B47"/><stop offset="1" stop-color="#040406"/></linearGradient><linearGradient id="code-lines_svg__d" x1="26" x2="26" y1="0" y2="52" gradientUnits="userSpaceOnUse"><stop stop-color="#515161"/><stop offset="1" stop-color="#213131" stop-opacity="0"/></linearGradient><linearGradient id="code-lines_svg__e" x1="26" x2="26" y1="0" y2="52" gradientUnits="userSpaceOnUse"><stop stop-color="#3B3B47"/><stop offset="1" stop-color="#040406"/></linearGradient><linearGradient id="code-lines_svg__f" x1="26" x2="26" y1="0" y2="52" gradientUnits="userSpaceOnUse"><stop stop-color="#515161"/><stop offset="1" stop-color="#213131" stop-opacity="0"/></linearGradient><linearGradient id="code-lines_svg__j" x1="26" x2="26.399" y1="17" y2="40.237" gradientUnits="userSpaceOnUse"><stop stop-color="#CABAF8"/><stop offset="1" stop-color="#A68BF3"/></linearGradient><linearGradient id="code-lines_svg__k" x1="31.042" x2="31.219" y1="18.8" y2="28.258" gradientUnits="userSpaceOnUse"><stop stop-color="#CABAF8"/><stop offset="1" stop-color="#A68BF3"/></linearGradient><filter id="code-lines_svg__b" width="65" height="65" x="-6.5" y="-3.5" color-interpolation-filters="sRGB" filterUnits="userSpaceOnUse"><feFlood flood-opacity="0" result="BackgroundImageFix"/><feColorMatrix in="SourceAlpha" result="hardAlpha" values="0 0 0 0 0 0 0 0 0 0 0 0 0 0 0 0 0 0 127 0"/><feOffset dy="3"/><feGaussianBlur stdDeviation="3.25"/><feComposite in2="hardAlpha" operator="out"/><feColorMatrix values="0 0 0 0 0.192878 0 0 0 0 0.169959 0 0 0 0 0.284554 0 0 0 0.6 0"/><feBlend in2="BackgroundImageFix" result="effect1_dropShadow_8702_103111"/><feBlend in="SourceGraphic" in2="effect1_dropShadow_8702_103111" result="shape"/></filter><filter id="code-lines_svg__h" width="129.077" height="81.271" x="-40.539" y="11.461" color-interpolation-filters="sRGB" filterUnits="userSpaceOnUse"><feFlood flood-opacity="0" result="BackgroundImageFix"/><feBlend in="SourceGraphic" in2="BackgroundImageFix" result="shape"/><feGaussianBlur result="effect1_foregroundBlur_8702_103111" stdDeviation="12.769"/></filter><filter id="code-lines_svg__i" width="28" height="28" x="12" y="12" color-interpolation-filters="sRGB" filterUnits="userSpaceOnUse"><feFlood flood-opacity="0" result="BackgroundImageFix"/><feBlend in="SourceGraphic" in2="BackgroundImageFix" result="shape"/><feGaussianBlur result="effect1_foregroundBlur_8702_103111" stdDeviation="2"/></filter><clipPath id="code-lines_svg__a"><rect width="52" height="52" fill="#fff" rx="26"/></clipPath></defs></svg>