<svg xmlns="http://www.w3.org/2000/svg" fill="none" viewBox="0 0 52 52"><g clip-path="url(#star_svg__a)"><rect width="52" height="52" fill="#fff" rx="26"/><g filter="url(#star_svg__b)"><rect width="52" height="52" fill="#040406" rx="26"/><rect width="52" height="52" fill="url(#star_svg__c)" rx="26"/><rect width="51" height="51" x=".5" y=".5" stroke="url(#star_svg__d)" rx="25.5"/></g><mask id="star_svg__g" width="52" height="52" x="0" y="0" maskUnits="userSpaceOnUse" style="mask-type:alpha"><rect width="51" height="51" x=".5" y=".5" fill="#040406" rx="25.5"/><rect width="51" height="51" x=".5" y=".5" fill="url(#star_svg__e)" rx="25.5"/><rect width="51" height="51" x=".5" y=".5" stroke="url(#star_svg__f)" rx="25.5"/></mask><g mask="url(#star_svg__g)"><g filter="url(#star_svg__h)" opacity=".7"><ellipse cx="24" cy="52.097" fill="#4B7B77" rx="39" ry="15.097"/></g><g filter="url(#star_svg__i)" opacity=".5"><path stroke="url(#star_svg__j)" stroke-linecap="square" stroke-linejoin="round" stroke-miterlimit="10" stroke-width="1.962" d="m26.24 13 4.092 8.394 9.149 1.346-6.62 6.534 1.562 9.226-8.183-4.356-8.182 4.356 1.562-9.226L13 22.74l9.15-1.346z"/></g><path stroke="url(#star_svg__k)" stroke-linecap="square" stroke-linejoin="round" stroke-miterlimit="10" stroke-width="1.962" d="m26.24 13 4.092 8.394 9.149 1.346-6.62 6.534 1.562 9.226-8.183-4.356-8.182 4.356 1.562-9.226L13 22.74l9.15-1.346z"/></g></g><defs><linearGradient id="star_svg__c" x1="26" x2="26" y1="0" y2="52" gradientUnits="userSpaceOnUse"><stop stop-color="#3B3B47"/><stop offset="1" stop-color="#040406"/></linearGradient><linearGradient id="star_svg__d" x1="26" x2="26" y1="0" y2="52" gradientUnits="userSpaceOnUse"><stop stop-color="#515161"/><stop offset="1" stop-color="#213131" stop-opacity="0"/></linearGradient><linearGradient id="star_svg__e" x1="26" x2="26" y1="0" y2="52" gradientUnits="userSpaceOnUse"><stop stop-color="#3B3B47"/><stop offset="1" stop-color="#040406"/></linearGradient><linearGradient id="star_svg__f" x1="26" x2="26" y1="0" y2="52" gradientUnits="userSpaceOnUse"><stop stop-color="#515161"/><stop offset="1" stop-color="#213131" stop-opacity="0"/></linearGradient><linearGradient id="star_svg__j" x1="26.24" x2="42.675" y1="13" y2="42.647" gradientUnits="userSpaceOnUse"><stop stop-color="#99E6DF"/><stop offset="1" stop-color="#2CB4A9"/></linearGradient><linearGradient id="star_svg__k" x1="26.24" x2="42.675" y1="13" y2="42.647" gradientUnits="userSpaceOnUse"><stop stop-color="#99E6DF"/><stop offset="1" stop-color="#2CB4A9"/></linearGradient><filter id="star_svg__b" width="65" height="65" x="-6.5" y="-3.5" color-interpolation-filters="sRGB" filterUnits="userSpaceOnUse"><feFlood flood-opacity="0" result="BackgroundImageFix"/><feColorMatrix in="SourceAlpha" result="hardAlpha" values="0 0 0 0 0 0 0 0 0 0 0 0 0 0 0 0 0 0 127 0"/><feOffset dy="3"/><feGaussianBlur stdDeviation="3.25"/><feComposite in2="hardAlpha" operator="out"/><feColorMatrix values="0 0 0 0 0.169959 0 0 0 0 0.284554 0 0 0 0 0.236424 0 0 0 0.6 0"/><feBlend in2="BackgroundImageFix" result="effect1_dropShadow_8702_103138"/><feBlend in="SourceGraphic" in2="effect1_dropShadow_8702_103138" result="shape"/></filter><filter id="star_svg__h" width="106" height="58.194" x="-29" y="23" color-interpolation-filters="sRGB" filterUnits="userSpaceOnUse"><feFlood flood-opacity="0" result="BackgroundImageFix"/><feBlend in="SourceGraphic" in2="BackgroundImageFix" result="shape"/><feGaussianBlur result="effect1_foregroundBlur_8702_103138" stdDeviation="7"/></filter><filter id="star_svg__i" width="36.288" height="35.308" x="8.096" y="8.096" color-interpolation-filters="sRGB" filterUnits="userSpaceOnUse"><feFlood flood-opacity="0" result="BackgroundImageFix"/><feBlend in="SourceGraphic" in2="BackgroundImageFix" result="shape"/><feGaussianBlur result="effect1_foregroundBlur_8702_103138" stdDeviation="1.962"/></filter><clipPath id="star_svg__a"><rect width="52" height="52" fill="#fff" rx="26"/></clipPath></defs></svg>